PathFileType	4	(X/Y/Z)	/Users/itak/Documents/Research/Walk-IL/dataset/trc/00088_00006.trc
DataRate	CameraRate	NumFrames	NumMarkers	Units	OrigDataRate	OrigDataStartFrame	OrigNumFrames
100.000000	100.000000	4	53	mm	100.000000	190	508
Frame#	Time	RPSI			LPSI			L3			STRN			T10			C7			CLAV			RBAK			LBAK			LSHO			LUPA			LAEL			LAOL			LWTS			LWPS			LFRA			LIFD			LHPS			LHTS			RSHO			RUPA			RAEL			RAOL			RWTS			RWPS			RFRA			RIFD			RHTS			RHPS			RBHD			LFHD			RFHD			LBHD			LHIP			RHIP			RASI			LASI			LKNE			LTHI			LANK			LTIP			LTOE			LMT1			LMT5			LHEE			RKNE			RTHI			RANK			RTIP			RTOE			RMT1			RMT5			RHEE			
		X1	Y1	Z1	X2	Y2	Z2	X3	Y3	Z3	X4	Y4	Z4	X5	Y5	Z5	X6	Y6	Z6	X7	Y7	Z7	X8	Y8	Z8	X9	Y9	Z9	X10	Y10	Z10	X11	Y11	Z11	X12	Y12	Z12	X13	Y13	Z13	X14	Y14	Z14	X15	Y15	Z15	X16	Y16	Z16	X17	Y17	Z17	X18	Y18	Z18	X19	Y19	Z19	X20	Y20	Z20	X21	Y21	Z21	X22	Y22	Z22	X23	Y23	Z23	X24	Y24	Z24	X25	Y25	Z25	X26	Y26	Z26	X27	Y27	Z27	X28	Y28	Z28	X29	Y29	Z29	X30	Y30	Z30	X31	Y31	Z31	X32	Y32	Z32	X33	Y33	Z33	X34	Y34	Z34	X35	Y35	Z35	X36	Y36	Z36	X37	Y37	Z37	X38	Y38	Z38	X39	Y39	Z39	X40	Y40	Z40	X41	Y41	Z41	X42	Y42	Z42	X43	Y43	Z43	X44	Y44	Z44	X45	Y45	Z45	X46	Y46	Z46	X47	Y47	Z47	X48	Y48	Z48	X49	Y49	Z49	X50	Y50	Z50	X51	Y51	Z51	X52	Y52	Z52	X53	Y53	Z53	

191	1.9	-1194.651245117188	1016.358947753906	-29.44533157348633	-1212.822265625	1012.081909179688	-199.1282196044922	-1197.213500976562	1077.7431640625	-129.3291015625	-924.1323852539062	1255.568115234375	-120.5070419311523	-1197.684448242188	1206.0185546875	-144.1927642822266	-1120.980102539062	1468.40087890625	-138.2011413574219	-946.7426147460938	1373.0478515625	-120.9153900146484	-1199.29248046875	1332.9462890625	-72.96728515625	-1135.247924804688	1434.983764648438	-241.9307708740234	-1026.65283203125	1438.46728515625	-303.5627136230469	-1043.013549804688	1317.033935546875	-390.6785888671875	-1030.07373046875	1100.675048828125	-416.7071838378906	-1109.680541992188	1088.51025390625	-347.9116821289062	-949.626220703125	874.2574462890625	-307.6662292480469	-988.1362915039062	853.2229614257812	-379.1478881835938	-1004.633911132812	991.4228515625	-409.6544799804688	-933.9557495117188	693.1939697265625	-264.1346130371094	-955.1101684570312	775.7735595703125	-357.3297119140625	-923.782958984375	794.3013916015625	-295.260986328125	-1081.142456054688	1424.631713867188	41.01359176635742	-1107.64111328125	1357.47216796875	101.6226501464844	-1163.990844726562	1098.434692382812	127.8392639160156	-1127.069458007812	1071.378295898438	38.87487411499023	-1018.005981445312	847.0046997070312	132.6571655273438	-1098.075805664062	830.8203735351562	164.220458984375	-1155.479248046875	1017.363647460938	140.3928833007812	-1003.112854003906	658.8372802734375	123.8106384277344	-992.7713623046875	747.2050170898438	140.4777374267578	-1061.936767578125	742.865966796875	179.3411102294922	-1106.825073242188	1622.2216796875	-68.37130737304688	-905.6685180664062	1687.733276367188	-137.0198822021484	-950.5990600585938	1672.505126953125	-19.96467399597168	-1067.865234375	1645.07861328125	-199.0499114990234	-1120.447631835938	941.11328125	-295.5572509765625	-1123.024047851562	945.2874145507812	49.27311325073242	-1002.22998046875	961.0279541015625	16.52338981628418	-1004.360107421875	945.8462524414062	-251.1794586181641	-1126.5888671875	475.8401184082031	-238.5400695800781	-1133.40283203125	619.2906494140625	-274.3202819824219	-1334.337036132812	53.53246688842773	-236.5042724609375	-1241.293334960938	254.6582183837891	-249.4372711181641	-1129.042358398438	44.8381462097168	-239.6806030273438	-1175.951538085938	45.27154922485352	-184.7949371337891	-1234.278198242188	39.6368522644043	-280.494384765625	-1384.826538085938	56.00816345214844	-158.9298248291016	-904.62158203125	532.75244140625	35.32866287231445	-1000.348754882812	786.9664916992188	60.10974884033203	-816.6602172851562	51.23013305664062	30.89203262329102	-885.3430786132812	411.4904479980469	43.97330093383789	-622.8787231445312	141.0451812744141	31.92253684997559	-666.81396484375	116.7081527709961	-15.95047378540039	-711.1266479492188	99.09484100341797	69.54046630859375	-849.0114135742188	40.80406188964844	-34.0977783203125	
192	1.91	-1188.258666992188	1014.832397460938	-28.2929630279541	-1206.360473632812	1010.731811523438	-197.9410247802734	-1190.757202148438	1076.305297851562	-128.1611938476562	-917.9608764648438	1254.19482421875	-118.6031799316406	-1191.230590820312	1204.575073242188	-143.0164489746094	-1114.677124023438	1467.012451171875	-136.74609375	-940.4956665039062	1371.687377929688	-118.9436264038086	-1193.081787109375	1331.443969726562	-71.83549499511719	-1128.599243164062	1433.628051757812	-240.5201263427734	-1019.868591308594	1437.142211914062	-301.8040771484375	-1035.859741210938	1315.72216796875	-388.9797058105469	-1022.445861816406	1099.493896484375	-415.2356872558594	-1102.249389648438	1087.071655273438	-346.6966857910156	-941.6417846679688	873.2835083007812	-306.0767517089844	-979.953857421875	852.1456909179688	-377.7151489257812	-996.7382202148438	990.3072509765625	-408.1812133789062	-925.6251831054688	692.2254638671875	-262.594970703125	-946.747314453125	774.8042602539062	-355.8181457519531	-915.7079467773438	793.3694458007812	-293.6265258789062	-1075.40380859375	1423.215454101562	42.5689582824707	-1102.179931640625	1356.107666015625	103.0764617919922	-1158.8544921875	1097.169311523438	129.2010650634766	-1121.335083007812	1069.9423828125	40.54905319213867	-1013.094848632812	845.6167602539062	135.3484039306641	-1093.370727539062	829.572021484375	166.4161834716797	-1150.44384765625	1016.117309570312	141.9642028808594	-998.3131103515625	657.4330444335938	126.7951507568359	-988.0794067382812	745.7595825195312	143.4252319335938	-1057.41552734375	741.5834350585938	181.8367156982422	-1100.9697265625	1620.848754882812	-67.22306823730469	-899.4939575195312	1686.369018554688	-134.6763458251953	-945.0220336914062	1671.194213867188	-17.86501121520996	-1061.349487304688	1643.68701171875	-197.5940704345703	-1114.00341796875	939.8330078125	-294.3765258789062	-1116.750610351562	943.7354736328125	50.46603393554688	-995.8922119140625	959.43994140625	17.82347297668457	-997.9276123046875	944.50634765625	-249.9095458984375	-1122.663940429688	474.7075805664062	-237.984375	-1128.663330078125	618.3016357421875	-273.4060363769531	-1334.112915039062	53.88826370239258	-236.5772247314453	-1239.324951171875	254.4864501953125	-249.1782073974609	-1129.15185546875	44.81515884399414	-239.7406311035156	-1175.921630859375	45.29267883300781	-184.9072265625	-1234.26171875	39.53373336791992	-280.553466796875	-1384.882934570312	57.08461761474609	-159.0170745849609	-899.050048828125	530.800537109375	36.17383193969727	-994.8244018554688	784.9716796875	62.21780776977539	-808.6417846679688	50.20644378662109	29.12754249572754	-879.2530517578125	409.8313293457031	44.06784439086914	-615.1615600585938	140.1775360107422	33.86469268798828	-658.2166137695312	116.2870941162109	-14.93872356414795	-703.9078979492188	97.95022583007812	69.73331451416016	-839.878662109375	40.12861251831055	-36.43839263916016	
193	1.92	-1181.742919921875	1013.28564453125	-27.07804489135742	-1199.767700195312	1009.387451171875	-196.6903686523438	-1184.186157226562	1074.855590820312	-126.9217147827148	-911.606689453125	1252.841064453125	-116.5816116333008	-1184.650024414062	1203.135498046875	-141.7286529541016	-1108.233520507812	1465.627807617188	-135.1385498046875	-934.0999145507812	1370.32080078125	-116.8320617675781	-1186.715576171875	1329.930053710938	-70.55132293701172	-1121.805786132812	1432.28515625	-238.955078125	-1012.935607910156	1435.832397460938	-299.8948059082031	-1028.594848632812	1314.420776367188	-387.1310424804688	-1014.717163085938	1098.339965820312	-413.6284484863281	-1094.68212890625	1085.642211914062	-345.2960205078125	-933.4937744140625	872.3218994140625	-304.4729614257812	-971.66943359375	851.0900268554688	-376.2209777832031	-988.7493286132812	989.21875	-406.6106567382812	-917.0319213867188	691.2865600585938	-261.0634460449219	-938.2386474609375	773.8546752929688	-354.2830505371094	-907.4489135742188	792.4522094726562	-292.0107727050781	-1069.509033203125	1421.79052734375	44.26885986328125	-1096.5390625	1354.72705078125	104.6767044067383	-1153.494995117188	1095.887573242188	130.7558441162109	-1115.43798828125	1068.487060546875	42.39199066162109	-1007.934387207031	844.232421875	138.1318969726562	-1088.3876953125	828.314208984375	168.7724914550781	-1145.16796875	1014.854736328125	143.7236328125	-993.2548828125	656.0311889648438	129.9032440185547	-983.1243896484375	744.3047485351562	146.4787750244141	-1052.602172851562	740.3036499023438	184.4770202636719	-1094.991577148438	1619.459838867188	-65.92066192626953	-893.2247924804688	1685.031005859375	-132.20068359375	-939.3436889648438	1669.910522460938	-15.6403751373291	-1054.733642578125	1642.266967773438	-195.9969940185547	-1107.426147460938	938.5697021484375	-293.1174011230469	-1110.407470703125	942.1826171875	51.72465896606445	-989.4298095703125	957.8375854492188	19.238037109375	-991.3277587890625	943.1786499023438	-248.5455169677734	-1118.63671875	473.6107177734375	-237.3945617675781	-1123.798950195312	617.3480834960938	-272.4364013671875	-1333.886840820312	54.32475662231445	-236.6897277832031	-1237.287963867188	254.38232421875	-248.9295349121094	-1129.264038085938	44.7964973449707	-239.7942047119141	-1175.887329101562	45.32971954345703	-185.0441131591797	-1234.240112304688	39.44731140136719	-280.6235961914062	-1384.935791015625	58.31239700317383	-159.1694946289062	-893.205322265625	528.9340209960938	37.18447113037109	-989.073486328125	783.1232299804688	64.35762786865234	-802.224853515625	48.85512161254883	26.97295379638672	-873.2335205078125	408.0141906738281	44.21047210693359	-608.7405395507812	138.1022796630859	35.78579330444336	-650.9242553710938	114.8868865966797	-14.01456928253174	-698.2125244140625	95.96971893310547	69.73126220703125	-832.2943115234375	39.283203125	-39.19332504272461	
194	1.93	-1175.092895507812	1011.728637695312	-25.78199005126953	-1193.023559570312	1008.059753417969	-195.3540496826172	-1177.488403320312	1073.404541015625	-125.5897521972656	-905.0571899414062	1251.520385742188	-114.4348220825195	-1177.93359375	1201.703979492188	-140.3204498291016	-1101.654907226562	1464.257202148438	-133.3730773925781	-927.5534057617188	1368.961059570312	-114.5755386352539	-1180.196411132812	1328.41162109375	-69.10960388183594	-1114.873291015625	1430.963623046875	-237.2311553955078	-1005.855041503906	1434.551635742188	-297.8296813964844	-1021.219055175781	1313.145751953125	-385.1325988769531	-1006.900268554688	1097.226318359375	-411.8868103027344	-1086.993041992188	1084.239013671875	-343.7071533203125	-925.2018432617188	871.3782348632812	-302.8600769042969	-963.294677734375	850.0687866210938	-374.6681518554688	-980.6846923828125	988.170654296875	-404.9465026855469	-908.1966552734375	690.39306640625	-259.5541076660156	-929.6056518554688	772.93603515625	-352.7344970703125	-898.9999389648438	791.5661010742188	-290.4216918945312	-1063.462646484375	1420.364013671875	46.11831283569336	-1090.721557617188	1353.336303710938	106.4288330078125	-1147.908447265625	1094.595947265625	132.5049133300781	-1109.369873046875	1067.01806640625	44.4041862487793	-1002.515197753906	842.8604736328125	141.0085754394531	-1083.125610351562	827.0553588867188	171.2891998291016	-1139.649536132812	1013.582336425781	145.6712951660156	-987.9505004882812	654.6361083984375	133.1390228271484	-977.8953247070312	742.8583984375	149.6358947753906	-1047.495971679688	739.0341796875	187.2686767578125	-1088.883178710938	1618.05810546875	-64.44683837890625	-886.86328125	1683.735473632812	-129.59130859375	-933.56396484375	1668.664916992188	-13.28469753265381	-1048.00341796875	1640.828857421875	-194.2522888183594	-1100.700439453125	937.338623046875	-291.7691955566406	-1103.97900390625	940.6326904296875	53.05979156494141	-982.8289184570312	956.2255249023438	20.76351737976074	-984.5512084960938	941.8705444335938	-247.0851898193359	-1114.48095703125	472.568115234375	-236.7540130615234	-1118.781982421875	616.444091796875	-271.4130249023438	-1333.654418945312	54.87980270385742	-236.8479614257812	-1235.164672851562	254.3619689941406	-248.6887817382812	-1129.364624023438	44.77675628662109	-239.8401641845703	-1175.840698242188	45.38196563720703	-185.2030029296875	-1234.203979492188	39.38857269287109	-280.7071228027344	-1384.948486328125	59.69517135620117	-159.3905029296875	-887.09716796875	527.151123046875	38.32572174072266	-983.0629272460938	781.4227294921875	66.49692535400391	-797.3252563476562	47.23523712158203	24.54179763793945	-867.2791137695312	406.061767578125	44.39901733398438	-603.53564453125	134.8481750488281	37.54872894287109	-644.8767700195312	112.4887008666992	-13.25414562225342	-693.9027709960938	93.21820831298828	69.50672912597656	-826.2215576171875	38.28170394897461	-42.20552444458008	
